<?xml version="1.0" encoding="UTF-8"?><svg id="Capa_1_copia" xmlns="http://www.w3.org/2000/svg" xmlns:xlink="http://www.w3.org/1999/xlink" viewBox="0 0 104.59 105.96"><defs><style>.cls-1{fill:url(#Degradado_sin_nombre_4);}.cls-2{font-family:DINAlternate-Bold, 'DIN Alternate';font-size:20px;letter-spacing:.14em;}</style><linearGradient id="Degradado_sin_nombre_4" x1="7.5" y1="39" x2="97.5" y2="39" gradientTransform="matrix(1, 0, 0, 1, 0, 0)" gradientUnits="userSpaceOnUse"><stop offset="0" stop-color="#02f97d"/><stop offset="1" stop-color="#ab58f8"/></linearGradient></defs><path class="cls-1" d="M93.71,28.88c.25,.07,.52,.12,.79,.12,1.66,0,3-1.34,3-3s-1.34-3-3-3-3,1.34-3,3c0,.62,.19,1.2,.52,1.68l-9.08,7.57-12.44-8.29c-.02-1.64-1.35-2.96-3-2.96-.56,0-1.07,.16-1.52,.43l-10.57-8.3c.05-.2,.09-.41,.09-.62,0-1.38-1.12-2.5-2.5-2.5s-2.5,1.12-2.5,2.5c0,.63,.24,1.2,.62,1.64l-5.64,11.99c-.3-.07-.61-.13-.93-.13-.86,0-1.64,.29-2.29,.76l-13.86-6.93c.06-.27,.09-.55,.09-.84,0-2.21-1.79-4-4-4s-4,1.79-4,4,1.79,4,4,4c1.2,0,2.27-.54,3-1.38l13.49,6.74c-.19,.46-.3,.97-.3,1.5s.1,1,.28,1.44l-7.26,7.86c-1.05-.74-2.33-1.17-3.71-1.17-2.37,0-4.44,1.27-5.57,3.17l-10.95-4.93c0-.08,.02-.16,.02-.24,0-1.66-1.34-3-3-3s-3,1.34-3,3,1.34,3,3,3c.85,0,1.62-.36,2.16-.93l11.01,4.95c-.11,.47-.17,.97-.17,1.47,0,1.84,.77,3.51,2.01,4.69l-5.23,7.84c-.09-.01-.18-.03-.28-.03-1.38,0-2.5,1.12-2.5,2.5s1.12,2.5,2.5,2.5,2.5-1.12,2.5-2.5c0-.55-.18-1.06-.49-1.47l5.13-7.7c.86,.42,1.83,.67,2.85,.67,1.76,0,3.36-.7,4.53-1.84l6.39,4.43c-.26,.51-.42,1.08-.42,1.69,0,2.06,1.67,3.73,3.73,3.73,1.94,0,3.52-1.49,3.7-3.39l15.81-3.7c.9,1.15,2.28,1.91,3.86,1.91,1.08,0,2.07-.36,2.88-.95l7.14,5.95c-.06,.22-.11,.45-.11,.69,0,1.38,1.12,2.5,2.5,2.5s2.5-1.12,2.5-2.5-1.12-2.5-2.5-2.5c-.4,0-.78,.1-1.11,.27l-7.08-5.9c.43-.73,.69-1.56,.69-2.47,0-2.57-1.98-4.66-4.5-4.87V29.95c.72-.12,1.35-.5,1.8-1.05l12.5,8.33,10.09,13.75c-.25,.36-.39,.8-.39,1.26,0,1.24,1.01,2.25,2.25,2.25s2.25-1.01,2.25-2.25-1.01-2.25-2.25-2.25c-.03,0-.07,0-.1,.01l-9.79-13.34,9.34-7.79Zm-40.77-10.89s.04,0,.07,0c.43,0,.82-.12,1.17-.31l10.52,8.27c-.12,.32-.2,.67-.2,1.04,0,1.11,.61,2.06,1.5,2.58v17.7c-.53,.18-1.01,.45-1.44,.79l-16.33-14.1c.11-.35,.18-.72,.18-1.11,0-1.09-.45-2.07-1.18-2.77l5.69-12.1Zm-5.36,38.64c-.61-1.24-1.87-2.1-3.34-2.1-.71,0-1.37,.21-1.94,.56l-6.56-4.54c.49-.91,.77-1.95,.77-3.06,0-1.49-.5-2.85-1.34-3.95l7.05-7.64c.65,.5,1.46,.81,2.34,.81,1.01,0,1.93-.4,2.62-1.04l16.12,13.92c-.37,.69-.6,1.46-.6,2.3,0,.4,.06,.78,.15,1.16l-15.27,3.57Z"/><text class="cls-2" transform="translate(13.3 91.89)"><tspan x="0" y="0">GENECI</tspan></text></svg>